<?xml version="1.0" encoding="UTF-8"?>
<svg version="1.1" viewBox="0 0 738 2048" width="448" height="1243" xmlns="http://www.w3.org/2000/svg">
  <g id="background">
    <path transform="translate(0)" d="m0 0h738v2048h-738z" fill="#BDBEBF" />
    <path transform="translate(0)" d="m0 0h738v2048h-738zm348 11-17 3-15 5-18 11-14 14-9 13-8 17-6 23-1 6v28l1 12-7 6-3 6-2 10 1 14 4 17 5 13 6 10 4 3 9 1h2l5 21 8 22-2 17-3 17-2 4-24 13-24 14-16 10-13 10-6 3-37 5-17 4-12 5-11 8-17 17-7 8-12 12-9 11-6 10-5 13-4 20-1 9v37l3 27 2 12v6l-12 25-8 24-5 22-3 25v32l1 20v22l-2 20-5 23-7 30-3 16-1 10v31l4 26 7 28 12 39 13 34 14 33 4 14 4 21 10 20v20l-3 29v30l3 8 6 8 8 9 10 15 6 7 8 3h8l11-4 11-6 9-7 2-1 1 11 8 55 7 38 6 26 8 27 9 24 10 20 1 7-1 17 2 34 4 34 4 20 2 5-1 9-6 15-8 29-5 24-3 24-1 19v36l3 32 5 29 8 31 12 37 12 34 9 30 8 36 3 20 2 24v23l-6 10-12 14-7 9-16 16-6 5-7 9-1 3v8l4 5 8 3 6 1h14l20-1h21l24 3h22l11-4 6-7 2-6v-17l-9-55-4-34-3-42-1-22v-38l3-33 6-35 13-61v-4h2l1 9 14 67 4 26 2 19 1 19v22l-2 44-3 39-4 32-8 45v17l4 10 7 6 8 3h23l29-4 20 1 12 1h19l10-3 6-7v-8l-8-11-15-14-5-5-8-9-10-13-8-11-1-3v-11l3-37 5-31 8-34 9-29 14-39 9-27 7-28 5-30 2-25v-41l-2-26-5-32-7-28-8-23-2-5 1-6 3-13 5-37 2-23 1-41 9-20 8-21 8-25 7-29 7-37 6-38 4-33 19 13 8 4 4 1h12l8-4 9-13 7-10 9-11 4-7 2-11v-11l-4-48v-11l4-10 7-12 5-28 6-15 11-24 10-28 12-38 8-29 4-21 2-16v-27l-4-27-6-24-6-25-2-18v-14l2-38v-16l-2-25-5-28-5-17-9-21-9-17 1-7 3-17 2-26v-36l-3-18-6-16-9-15-12-14-12-13-11-12-11-9-9-6-13-6-21-5-31-4-11-7-15-10-25-15-23-13-10-6-3-12-3-21 1-7 7-20 4-18v-3l8 1 6-3 6-7 8-20 3-13 1-13-2-12-5-8-5-4 1-13v-19l-2-18-4-16-5-13-7-13-8-10-9-9-15-10-17-7-12-3-7-1z" fill="#F6F7F7" />
    <path transform="translate(348,11)" d="m0 0h26l15 3 14 5 12 6 12 9 10 10 9 14 7 15 4 15 2 11 1 12v19l-1 13 6 5 5 10 1 14-3 17-5 15-6 12-7 6-6 1-5-1-2 14-6 19-4 10 1 11 4 25 4 4 27 15 25 15 24 16 5 3 37 5 18 5 17 9 11 10 7 6 7 8 7 7 7 8 11 14 8 14 6 18 2 14v36l-3 34-3 11 1 7 10 19 8 20 5 19 4 23 2 25v16l-2 38v14l2 18 6 25 6 24 4 27v27l-4 28-7 28-15 48-10 28-13 28-5 15-4 24-9 16-2 6v11l4 48v11l-2 11-7 11-10 12-9 14-5 5-6 3h-12l-11-4-14-10-6-4-6 47-8 46-6 28-7 26-10 29-12 27-1 41-3 31-5 35-3 9 1 7 7 19 7 25 5 26 3 26 1 15v41l-2 25-5 30-7 28-12 36-13 36-8 27-8 36-4 25-3 37v11l4 8 11 13 10 13 5 6 8 7 11 10 6 9v8l-6 7-10 3h-19l-25-2-16 1-20 3h-23l-10-4-6-7-3-8v-17l8-45 4-32 3-39 2-44v-22l-2-30-4-28-8-40-8-38v-4h-2l-1 8-14 67-4 25-3 33v38l3 53 3 30 6 40 5 30v17l-4 9-6 5-9 3h-22l-24-3h-21l-20 1h-14l-12-3-5-4-1-2v-8l4-7 8-9 8-7 13-13 20-26 2-4v-23l-3-32-7-36-9-33-14-41-12-36-8-30-5-26-3-25-1-14v-36l2-29 5-30 9-34 6-16 2-5v-6l-3-9-4-23-4-40-1-29 1-12-4-10-9-19-9-25-7-25-8-37-8-49-5-35v-5l-18 12-11 5-4 1h-8l-8-3-7-8-7-11-9-11-6-7-3-6-1-4v-30l3-29v-20l-9-17-3-12-4-20-10-25-13-32-10-28-12-42-5-24-2-15v-31l3-21 7-31 5-21 2-13 1-13v-22l-1-20v-32l3-25 6-25 7-21 12-25-1-12-3-22-1-11v-37l3-21 5-17 7-13 9-10 7-8 12-12 7-8 13-13 13-8 15-5 24-4 23-3 9-5 13-10 18-11 25-14 19-11 3-13 3-20-1-6-9-27-3-14h-8l-6-3-6-9-5-12-4-14-2-14 1-12 3-8 5-6 3-2-1-12v-28l4-19 5-15 9-17 9-11 11-11 20-12 17-5zm2 8-18 4-22 8-11 6-7 8-8 13-8 16-5 15-2 11-1 11v15l3 20 5 17 8 18 9 16 3 6 1 5-6-5-14-21-9-17-4-10-2-1-4 11v10l5 19 7 16 2 2h6l1-1v-12l3 3 6 19 6 21 2 5h1l1-10 1-2 4-1v12l-4 44-3 16-4 6-28 15-19 10-23 14-16 10-12 7-5 2-1-5-25 4-16 5-11 6-11 9-16 16-7 8-10 12-8 13-5 13-4 20-1 7v35l3 29h3l1-2 4-1-13 30-9 25-7 25-4 25-1 13v87l-4 21-7 22-6 38v31l4 24 9 38 10 33 11 28 11 25 7 21 5 24 8 16 3 7v23l-3 40v17l4 7 12 14 11 17 5 3h10l12-6 14-12 3-3-2-88-1-8-10-10-8-10-4-8-2-15-1-19-5-37-1-12v-12l4-27 10-48 3-22 1-12v-33l-3-23-6-26-4-13-5 5-2 1v-7l8-31 6-19 5-5 4-8 1-4v-7l-4-5-1-3h2l1-6 3-19v-11l-12-59-5-16-6-13-3-13-1-7v-14l3-2 4 18 6 18 8 20 5 24 2 19 3 14 2 3h2l3 12 9 25 5 14 6 16 5 13 10 18 10 21 7 20-1 4-3-1-5-11-2 1-1 17v35l3 22 2 7-1 7-8 17-8 24-4 20-3 26v25l2 18v10h-4l-2-10-3 3-8 19-5 17v23l5 35 1 15v48l1 26 3 33 6 42 10 52 7 29 9 31 10 28 12 27 2 4-6 1v20l3 34 4 29 1 3 3-1 3-5 2-1-3 14-10 28-6 16-4 26-5 31-2 23v35l2 23 5 29 8 32 12 37 12 34 9 30 7 29 5 27 3 30 1 24-3 9-11 15-13 16-11 12-15 13-3 4 1 4 7 3h18l36-3-2-9v-10l1-7 2 6 3 2 3 10 4 7 11 4 5 1h24l6-5 2-6v-11l-8-40-4-31-4-44-2-36v-46l2-25 5-29 12-54 5-28 2-19v-28l-3-20-11-42-8-40-2-13v-6h2l4 10 2-3 4-26v-22l-2-19-4-16-1-6v-27l5-38 6-47 4-49 2-42v-118l-11 6-8 4-16 4-12 1h-13l-15-2-17-5-12-5-10-6-10-9-9-12-4-9-3-13 5 5 10 15 8 10 8 7 16 8 16 5 13 2h26l14-3 12-5 8-6 7-8 5-6h2l7 11 10 8 13 6 13 3h29l15-3 15-5 13-7 11-10 11-16 7-11 3-1-5 16-7 13-10 11-10 7-16 8-19 5-7 1h-31l-15-4-16-8-4-1-1 45v29l1 45 2 43 3 39 6 50 5 43v33l-5 33-2 16v10l3 25 2 3 3-8 1-3 4-2-3 20-6 31-8 31-6 24-2 15v29l3 27 9 43 9 42 4 30 1 14v43l-2 39-3 37-5 35-6 29-3 16 1 10 6 7 5 2 8 1h16l6-2 10-9 3-6v-9l-3-16-1-9 3 3 7 16 2 9-1 10-4 9h19l26 3 11-1 7-4-1-5-22-22-7-8-9-10-9-12-5-9v-44l4-29 7-31 9-33 18-53 8-24 7-26 5-26 3-23 1-16v-24l-3-34-5-30-9-38-10-30-2-5v-8l4 5 1 2h2l5-32 2-18 1-16v-19l-6-3 2-5 8-16 7-16 13-40 11-46 8-42 6-40 4-39 1-19v-59l2-22 4-25v-22l-4-15-9-21-3-4-2 10h-4l2-26v-42l-4-22-9-27-10-23-1-6 3-13 2-17v-34l-1-15-2-2-5 9v2h-4l4-17 5-13 8-16 12-23 11-24 8-20 6-19 6-23 7-42 5-16 9-20 5-24 3-3 1 2-1 13-2 19-10 24-5 25-6 29-3 13v7l6 32 7 34 10 36 2 14h-2l-2-3-3 1-4 8-8 10-1 2v8l2 3-1 15-1 13v36l3 25 5 26 7 34 2 13 1 19-3 30-3 23-1 26-6 12-18 21-1 2-1 55-1 22v18l8 7 14 10 8 3h10l5-4 10-17 11-11 4-7 1-5-1-25-2-28v-26l6-11 4-8 3-12 5-21 8-22 13-32 10-28 9-31 6-26 4-26v-26l-3-23-6-26-6-21-2-11-1-13v-15l2-39v-11l-2-26-5-26-7-24-8-21-9-21-3-11 6 3 1-2 3-30v-39l-3-15-6-16-6-11-11-14-9-9-7-8-15-15-10-7-14-5-20-4-13-1-3 3-12-6-23-14-18-11-18-10-24-13-8-6-3-7-3-21-3-31v-13l1-2 3-1 2 12 2 1 10-36 3-10 4-1-1 5v7h7l4-6 9-27 1-5v-8l-3-9-3-3-5 12-9 19-12 17-3 4-5 1 13-24 8-19 6-20 2-11 1-16-2-21-5-19-9-19-10-13-9-8-14-8-12-5-15-4-6-1z" fill="#818285" />
    <path transform="translate(554,657)" d="m0 0h2l7 35 6 22 7 19-1 6-10 28-4 18-3 27v43l4 29 10 42 3 19v35l-6 63-6 10-7 8h-2l1-11 2-15v-22l-3-14-7-19-9-20-2-7v-13l1-13v-10l-3-21-6-20-8-19-6-13 1-13 3-35v-24l-2-26v-11l15-28 10-19 9-21z" fill="#F5F6F6" />
    <path transform="translate(165,656)" d="m0 0 3 1 7 23 17 33 12 21v10l-2 22v39l2 20 2 12v7l-10 22-8 21-4 19-1 9v10l1 13v15l-5 14-9 20-6 20-1 6v25l3 19v4l-4-2-6-7-4-10-2-13-3-35-2-18v-35l5-24 7-29 4-24 1-10v-44l-3-23-5-22-8-24-2-7 10-30 6-24 3-21z" fill="#F4F5F6" />
    <path transform="translate(360,1223)" d="m0 0h1l2 30 4 59 5 49 5 36 1 23v13l-3 12-2 3-3 21v19l3 24 5 26-2 10-13 49-2 9-3-3-12-48-3-11v-10l4-21 2-19v-31l-6-39v-25l5-39 6-52 3-40 2-38z" fill="#F4F5F5" />
    <path transform="translate(361,610)" d="m0 0h1l1 10 1 48v90l-1 37-2 14-4-1-2-6v-92l2-60 3-37z" fill="#818285" />
    <path transform="translate(357,207)" d="m0 0h7l32 10-3 3-3 1h-10l-17-5-9 1-14 4h-11l-6-3 3-2 21-6z" fill="#818285" />
    <path transform="translate(358,239)" d="m0 0 4 1 2 49-1 15-2 5-3-1-2-5v-21l2-24z" fill="#818285" />
    <path transform="translate(258,1423)" d="m0 0h2l-1 5-1 3-1 34-6 15h-2v-27l3-15 5-13z" fill="#818285" />
    <path transform="translate(462,1427)" d="m0 0 4 4 3 10 2 17v22l-3-2-5-14-1-23z" fill="#818285" />
    <path transform="translate(645,740)" d="m0 0 4 4 5 11 4 17-1 5-15 15-1-2 6-13 2-7-1-13-3-13z" fill="#818285" />
    <path transform="translate(70,741)" d="m0 0h2l-2 12-2 9v7l4 13 4 7-1 2-15-15 1-9 4-15z" fill="#818285" />
    <path transform="translate(109,748)" d="m0 0 2 1-1 7 1 1v14l-2 7-6 7-4 3h-2v-9l7-4 1-3 2-21z" fill="#818285" />
    <path transform="translate(160,560)" d="m0 0 2 4 1 1 3 26 2 12 2 15 4 15-1 4-6-20-5-21-1-6z" fill="#EBECEC" />
    <path transform="translate(607,750)" d="m0 0 4 3 2 22 7 5 1 6-2 2-8-6-4-8z" fill="#818285" />
    <path transform="translate(314,1443)" d="m0 0h1v18l-4 20-2 1-1-2v-10l5-26z" fill="#818285" />
    <path transform="translate(407,1454)" d="m0 0 2 2 3 14v12l-3-3-3-9-1-11z" fill="#818285" />
    <path transform="translate(375,1390)" d="m0 0h1l1 7 1 23v13l-3 12-2 1 2-16z" fill="#BEBFC0" />
    <path transform="translate(360,1223)" d="m0 0h1l1 10v10l-3-1v-12z" fill="#D1D2D3" />
    <path transform="translate(294,1979)" d="m0 0 3 1v3l-5 4h-2l2-6z" fill="#818285" />
    <path transform="translate(414,1399)" d="m0 0h3l-2 4-4 4-2-1 3-5z" fill="#F7F8F8" />
  </g>
  <g id="neck" fill="#FF5733">
    <path transform="translate(322,231)" d="m0 0h13l8 3 3 5 2 12v22l-2 57-3 6-6 4-24 3-47 7-32 7-6-1 6-7 14-9 17-8 27-11 7-4 4-9 4-26 3-42 3-5 5-3z" />
    <path transform="translate(385,231)" d="m0 0h13l8 3 3 4 1 6 2 35 4 28 4 9 5 4 16 7 24 10 16 9 10 8-1 3-11-2-27-6-26-4-38-4-9-3-5-6-1-16-1-32v-38l3-9 6-5z" />
  </g>
  <g id="shoulder" fill="#581845">
    <path transform="translate(172,376)" d="m0 0 8 1 12 6 12 12 7 14v5l-9 7-16 10-12 9-14 12-14 15-10 13-10 15-12 22-8 16-5 8-5 2-5-5-3-13-3-21v-29l4-18 5-13 8-15 10-13 15-15 15-11 17-9z" />
    <path transform="translate(543,376)" d="m0 0 9 2 16 7 11 6 12 9 10 9 8 8 10 14 8 16 5 15 2 9 1 10v19l-4 28-4 13-2 2-4-1-7-8-13-27-11-18-10-14-13-15-13-13-11-9-14-10-13-8-6-4-1-7 6-12 9-11 9-6z" />
  </g>
  <g id="back" fill="#ff0000">
    <g id="trap">
      <path transform="translate(328,347)" d="m0 0h15l6 3 2 2 1 4 2 47 1 69v51l-1 51-2 44-2 21-3 12-3 5-4 1-6-7-11-25-14-27-13-22-16-25-13-15-10-11-7-8-14-14-8-7-8-8-4-8-1-4v-9l5-10 12-13 10-13 2-5-1-6-8-7-16-12-12-11-6-8-1-2v-6l6-4 15-5 30-7 37-7z" />
      <path transform="translate(380,347)" d="m0 0h13l30 3 46 8 31 7 16 6 4 3-1 7-8 11-12 11-11 9-10 8 1 8-2 3 13 14 9 11 5 8 1 3v9l-4 10-7 9-12 11-16 16-9 11-13 17-14 20-12 20-10 18-8 16-12 26-4 6-3 1-5-4-4-16-2-23-2-65v-104l2-82 1-9 4-5z" />
      <path transform="translate(191,440)" d="m0 0h7l5 4 3 8 5 34 4 15 1 3v7l-4 7-8 6-8 3h-16l-9-5-8-9-7-12-4-13v-12l7-11 14-15 10-7z" />
      <path transform="translate(523,440)" d="m0 0h8l11 6 13 12 8 10 5 8v11l-5 15-6 11-8 9-7 4-4 1h-10l-11-3-8-5-5-6v-9l5-20 5-32 3-8z" />
    </g>
    <g id="lat">
      <path transform="translate(230,519)" d="m0 0h6l8 7 20 20 11 15 8 13 13 24 15 31 9 19 1 3v9l-6 17-10 23-11 23-10 17-10 13-6 4-6 2h-13l-10-4-8-8-15-23-11-19-8-16-10-22-11-29-7-25-5-29-3-25-4-15v-6l4-4h8l12 3h17l10-3 14-8z" />
      <path transform="translate(485,518)" d="m0 0 6 2 9 8 10 5 14 4h16l11-3h8l3 3v9l-4 16-6 40-6 25-8 26-10 25-9 19-10 18-11 18-12 17-8 6-7 3h-14l-10-5-8-9-11-18-9-17-11-25-8-19-1-4v-12l4-9 18-37 8-16 12-20 12-17 12-14 18-18z" />
      <path transform="translate(336,667)" d="m0 0h5l4 5 1 47v90l-3 36-3 11-2 2-5-1-8-7-11-12-14-11-13-8-24-12-4-5-3-8v-11l3-8 5-4 16-8 9-9 9-14 11-22 13-30 9-17z" />
      <path transform="translate(380,667)" d="m0 0 5 1 5 5 6 10 11 24 9 21 9 17 8 11 7 7 16 8 5 4 3 9v9l-4 10-7 6-22 11-12 8-10 8-21 21-4 2-5-5-3-22-2-30v-73l1-55 3-5z" />
      <path transform="translate(232,769)" d="m0 0h10l5 3 1 17 2 13v6l-5 8-8 7-6 3-6-1-3-5-3-10-1-7v-15l3-12 7-6z" />
      <path transform="translate(480,768)" d="m0 0 11 2 7 4 2 8 1 6v20l-4 13-3 5-7-1-10-6-5-6-2-4 1-13 1-7 1-17 4-3z" />
    </g>
  </g>
  <g id="arm" fill="#A7C7E7">
    <g id="tricep">
      <path transform="translate(118,536)" d="m0 0 5 1 6 10 8 16 7 21 4 20 2 16v18l-3 18-3 10-2 11-7 30-6 21-6 15h-4l-4-9-5-17-13-23-2-6-2-22-3-5-5-1-5 5-4 11-6 36-5 16-3 6-3-1-1-13v-58l3-26 4-19 7-20 8-16 9-14 8-10 12-13 7-7z" />
      <path transform="translate(598,536)" d="m0 0 5 1 8 7 13 14 10 13 8 14 7 15 6 20 4 18 3 32v39l-1 22-2 3-4-5-4-10-8-48-3-6-5-4h-5l-3 3-1 3-1 20-5 12-10 18-4 12-4 13-3 3-5-8-6-18-9-38-7-33-1-7v-30l4-23 6-21 11-23z" />
    </g>
    <g id="wrist">
      <path transform="translate(588,772)" d="m0 0 5 2 8 7 7 8 4 8 8 9 4 7 1 4v38l-3 30-7 43-12 63-6 34-5 16-3 5-3-1-2-5-1-14 2-14 4-22 2-21-1-21-4-30-9-46-3-21-1-12v-20l2-21 4-15 5-8z" />
      <path transform="translate(129,773)" d="m0 0 6 1 4 5 3 8 3 14 1 8v34l-4 30-10 55-3 26v21l3 24 4 21v20l-3 6-3-1-5-10-5-24-9-49-9-48-5-35-3-35v-20l2-10 4-8 9-12 7-11 5-6z" />
      <path transform="translate(56,793)" d="m0 0h6l5 4 6 10 7 19 5 20 4 29 5 41 8 47 10 48 6 27 1 12-2 6-3 1-8-7-8-14-15-44-18-50-11-34-6-24-4-27v-29l3-19 4-10z" />
      <path transform="translate(658,793)" d="m0 0 7 1 6 9 4 18 1 12v19l-3 22-6 28-10 33-16 45-14 41-6 16-7 12-7 8-4-1-2-3v-12l6-28 9-41 9-53 8-61 6-29 6-18 6-11z" />
    </g>
  </g>
  <g id="glute" fill="#ffed29">
    <path transform="translate(328,884)" d="m0 0h12l6 4 4 6 1 3v91l-1 66-2 11-4 10-8 10-10 6-12 4-13 2h-16l-14-3-15-8-10-8-13-13-10-15-7-16-3-12v-20l4-9 6-7 16-10 12-11 14-18 13-19 14-18 12-13 14-9z" />
    <path transform="translate(383,883)" d="m0 0 14 3 13 7 12 11 9 10 13 18 14 19 11 14 8 8 15 10 8 6 5 7 2 8v17l-4 15-9 19-9 12-9 10-13 10-15 7-12 3h-16l-17-3-12-5-9-6-7-10-4-12-1-10-1-38v-116l4-8 5-4z" />
    <path transform="translate(261,828)" d="m0 0h7l12 4 14 7 12 9 8 8 4 7v7l-4 6-22 14-10 9-10 11-12 17-8 12-10 13-12 13-8 8-12 6-5-3-3-4-2-7v-31l2-30 3-17 7-21 9-15 11-11 12-7 12-4z" />
    <path transform="translate(451,828)" d="m0 0h9l15 5 11 6 10 9 7 10 7 15 5 17 3 16 2 25v30l-3 12-4 5-5 1-10-6-17-17-11-14-19-28-7-9-8-9-15-11-14-8-5-6v-8l6-9 9-9 14-9 13-6z" />
  </g>
  <g id="leg" fill="#008000">
    <g id="hamstrings">
      <path transform="translate(506,1094)" d="m0 0 5 2 1 1 2 22 1 22v41l-2 37-4 36-7 44-9 44-8 32-6 16-3 6h2l-2 4-16-2-6-3-6-8-3-8-3-25-1-15v-62l3-53 4-49 3-46 3-8 10-5 13-5 11-6 14-10z" />
      <path transform="translate(209,1095)" d="m0 0 7 1 11 7 10 7 12 5 14 5 4 4 1 3 4 57 5 70 1 22v68l-2 17-4 17-7 16-9 10-7-1-6-8-7-15-6-21-9-40-7-38-6-44-3-33-1-21v-45l2-34 1-7z" />
      <path transform="translate(279,1125)" d="m0 0h36l2 7 6 42 4 40 2 31v76l-2 29-4 33-4 18-4 6-1 1-7-1-5-6-5-15-6-29-3-25-8-118-2-38v-50z" />
      <path transform="translate(431,1125)" d="m0 0h10v55l-5 83-5 65-4 35-4 21v4l1 2-1 3-7 5h-5l-2 5-3 4-4-2-3-7-5-29-3-30-2-41v-26l1-30 3-41 5-42 5-31 1-2z" />
    </g>
    <g id="calves">
      <path transform="translate(413,1495)" d="m0 0 4 1 4 5 4 11 5 29 3 26 2 28 1 22v52l-1 26-2 20-4 15-7 16-8 10-6 4-7-1-5-4-7-14-5-18-4-21-2-20v-48l3-30 7-40 6-28 8-24 6-12z" />
      <path transform="translate(301,1493)" d="m0 0 4 1 1 2 6 3 5 13 9 29 7 33 6 40 2 22v44l-3 27-5 23-6 18-6 9-5 3-7-1-8-7-8-14-6-18-2-12-2-33v-56l3-50 3-30 4-22 6-20z" />
      <path transform="translate(266,1488)" d="m0 0 5 1 3 5 2 9 1 9v22l-3 46-1 22v66l1 20v13l-5 8-7 6-3 1h-8l-8-4-7-8-5-12-2-9-1-9v-52l2-27 4-27 6-26 10-30 7-14 7-9z" />
      <path transform="translate(449,1487)" d="m0 0 5 1 5 5 5 8 5 11 7 21 7 28 5 29 2 18 1 15v52l-3 16-5 13-7 8-8 4h-8l-8-4-5-6-2-6v-11l1-18v-68l-4-74v-15l2-17z" />
    </g>
  </g>
</svg>
